<svg id="Layer_1" data-name="Layer 1" xmlns="http://www.w3.org/2000/svg" viewBox="0 0 274.07 811.86"><defs><style>.cls-1{fill:#c6c6c6;}.cls-2{fill:#ddd;}.cls-3{fill:#fff;}.cls-4{fill:#c9c9c9;}</style></defs><title>vector d4 (1)</title><path class="cls-1" d="M597.12,305.16l6-3.4c11.67-6.38,18.92-18.11,18.92-30.6,0-12.33-8.82-24.62-22.53-31.34l-5.1-2.56c-.16.38-.31.78-.48,1.16,15.24,4.16,26.1,17.25,26.1,32.48,0,18.66-16.44,33.83-36.64,33.83a39.19,39.19,0,0,1-11-1.55,41.42,41.42,0,0,1,.58,6.92,39,39,0,0,1-77.55,5.8,42.58,42.58,0,0,1-15.15,2.77c-23.18,0-42-18.66-42-41.6a41.49,41.49,0,0,1,29.44-39.67,37.78,37.78,0,0,1-2.84-14.35c0-21.22,17.62-38.5,39.3-38.5A39.75,39.75,0,0,1,539,205.27a32.26,32.26,0,0,1,57.46,20.57,33,33,0,0,1-.52,5.79l44.87-80.07a154.63,154.63,0,0,0-104.16-40c-85.79,0-155.6,69.8-155.6,155.61s69.81,155.6,155.6,155.6a154.86,154.86,0,0,0,104.71-40.49Zm-210-38c0-82.44,67.07-149.52,149.5-149.52a148.44,148.44,0,0,1,96.42,35.27l-33.07,59a38.22,38.22,0,0,0-60-16.21,46.06,46.06,0,0,0-35.85-17.24c-25,0-45.4,20-45.4,44.59a44.07,44.07,0,0,0,1.34,10.74,47.49,47.49,0,0,0-27.94,43.28c0,26.29,21.61,47.7,48.14,47.7a48.94,48.94,0,0,0,10.67-1.18,45.23,45.23,0,0,0,43.05,32c24.68,0,44.79-20.11,45.08-44.94,1.41.14,2.84.2,4.29.2a45.56,45.56,0,0,0,9.43-1l2.09,3.64L633.59,381a148.66,148.66,0,0,1-96.94,35.68C454.22,416.66,387.15,349.58,387.15,267.15Z" transform="translate(-374.96 -105.44)"/><path d="M605.45,307.44l.56-.34c13.62-7.45,22.1-21.24,22.1-35.93s-10.19-29.09-25.91-36.8l-.64-.32,46.9-83.69a160.68,160.68,0,0,0-111.81-44.92C447.51,105.44,375,178,375,267.15A161.88,161.88,0,0,0,472.64,415.6c1.77.79,3.58,1.54,5.39,2.23a160.67,160.67,0,0,0,58.62,11,162.55,162.55,0,0,0,22.46-1.55c4.84-.67,9.61-1.55,14.34-2.67A160.69,160.69,0,0,0,649,383.4Zm-33.23,105c-.7.17-1.39.34-2.08.49a150.61,150.61,0,0,1-33.49,3.75c-82.42,0-149.5-67.08-149.5-149.5s67.08-149.52,149.5-149.52a148.48,148.48,0,0,1,96.43,35.27l-33.09,59a38.19,38.19,0,0,0-60-16.2,46,46,0,0,0-35.84-17.25c-25,0-45.4,20-45.4,44.6a44.61,44.61,0,0,0,1.34,10.73,47.48,47.48,0,0,0-27.94,43.27c0,26.31,21.61,47.7,48.14,47.7a48.77,48.77,0,0,0,10.66-1.17,45.22,45.22,0,0,0,43.05,32c24.68,0,44.79-20.11,45.09-44.94,1.42.13,2.85.21,4.29.21a44.89,44.89,0,0,0,9.43-1l2.09,3.64L633.58,381A148.47,148.47,0,0,1,572.22,412.41Zm13.57-170.14a1.87,1.87,0,0,0,1.45,1.08C602.46,245,613.9,256.9,613.9,270.9c0,15.27-13.68,27.75-30.54,27.75A33.44,33.44,0,0,1,571,296.29a3.91,3.91,0,0,0-4.2.77,3.8,3.8,0,0,0-1.14,4,33.66,33.66,0,0,1,1.2,9A33.16,33.16,0,0,1,534,343.38c-18.14,0-32.89-15-32.89-33.35a2.11,2.11,0,0,0-1.08-1.9,2.7,2.7,0,0,0-1.14-.32,2.14,2.14,0,0,0-1.09.32,36.5,36.5,0,0,1-17.51,4.44,35.44,35.44,0,0,1-6.16-70.43,1.92,1.92,0,0,0,1.4-1.09,2.11,2.11,0,0,0-.07-1.71,31.9,31.9,0,0,1-4.52-16.28c0-17.89,14.88-32.41,33.21-32.41,14.69,0,27.82,9.61,31.94,23.37a2.27,2.27,0,0,0,2.11,1.64,2.5,2.5,0,0,0,1.93-.76,2.05,2.05,0,0,0,.37-.58,26.27,26.27,0,1,1,45.42,26.15A1.83,1.83,0,0,0,585.79,242.27Z" transform="translate(-374.96 -105.44)"/><path d="M633.59,381a148.66,148.66,0,0,1-96.94,35.68c-82.43,0-149.5-67.08-149.5-149.51s67.07-149.52,149.5-149.52a148.44,148.44,0,0,1,96.42,35.27l-33.07,59a38.22,38.22,0,0,0-60-16.21,46.06,46.06,0,0,0-35.85-17.24c-25,0-45.4,20-45.4,44.59a44.07,44.07,0,0,0,1.34,10.74,47.49,47.49,0,0,0-27.94,43.28c0,26.29,21.61,47.7,48.14,47.7a48.94,48.94,0,0,0,10.67-1.18,45.23,45.23,0,0,0,43.05,32c24.68,0,44.79-20.11,45.08-44.94,1.41.14,2.84.2,4.29.2a45.56,45.56,0,0,0,9.43-1l2.09,3.64Z" transform="translate(-374.96 -105.44)"/><path class="cls-2" d="M534,337.29A27.06,27.06,0,0,1,507.18,310a8.12,8.12,0,0,0-4.27-7.26,8.63,8.63,0,0,0-4.05-1.06,8.05,8.05,0,0,0-4.1,1.12,30.58,30.58,0,0,1-14.49,3.65,29.36,29.36,0,0,1-5.15-58.34A8.09,8.09,0,0,0,481,243.6l.08-.18a8.07,8.07,0,0,0-.27-6.87l-.09-.17-.1-.17A25.77,25.77,0,0,1,477,223.05c0-14.51,12.17-26.31,27.12-26.31a27.24,27.24,0,0,1,26.11,19,8.32,8.32,0,0,0,7.57,6l.52,0a8.38,8.38,0,0,0,7.69-4.91A20.18,20.18,0,1,1,580.88,237a8,8,0,0,0,5.79,12.38c12,1.31,21.14,10.55,21.14,21.49,0,11.94-11,21.65-24.45,21.65a27.51,27.51,0,0,1-10.11-1.93,10.39,10.39,0,0,0-3.77-.72,10.09,10.09,0,0,0-9.64,12.92A27.36,27.36,0,0,1,534,337.29Z" transform="translate(-374.96 -105.44)"/><path d="M504.13,202.83a21.11,21.11,0,0,1,20.25,14.62,14.46,14.46,0,0,0,13,10.37l.92,0a14.45,14.45,0,0,0,13.21-8.42,14.09,14.09,0,1,1,24.29,14.2A14.06,14.06,0,0,0,586,255.46c9,1,15.76,7.63,15.76,15.44,0,8.58-8.24,15.55-18.36,15.55a21.34,21.34,0,0,1-7.85-1.49,16.48,16.48,0,0,0-6-1.15A16.18,16.18,0,0,0,554,304.43,20.79,20.79,0,1,1,513.27,310a14.32,14.32,0,0,0-7.45-12.62l-.1-.05-.1-.05a14.45,14.45,0,0,0-6.76-1.7,14.19,14.19,0,0,0-7.07,1.9,24.4,24.4,0,0,1-11.52,2.87,23.57,23.57,0,0,1-23.76-23.32,23.33,23.33,0,0,1,19.63-22.92l.12,0,.12,0a14.12,14.12,0,0,0,10.2-8l.08-.17.08-.19a14.2,14.2,0,0,0-.48-12l-.17-.33-.19-.33a19.57,19.57,0,0,1-2.79-10c0-11.15,9.43-20.22,21-20.22Zm0-12.18c-18.33,0-33.21,14.52-33.21,32.4a31.81,31.81,0,0,0,4.51,16.28,2.08,2.08,0,0,1,.08,1.73,1.92,1.92,0,0,1-1.41,1.08,35.45,35.45,0,0,0,6.17,70.44,36.51,36.51,0,0,0,17.51-4.45,2.06,2.06,0,0,1,1.08-.32,2.46,2.46,0,0,1,1.14.32,2.09,2.09,0,0,1,1.08,1.91,32.9,32.9,0,1,0,64.59-9,4,4,0,0,1,3.81-5.07,4.18,4.18,0,0,1,1.54.3,33.51,33.51,0,0,0,12.34,2.35c16.87,0,30.55-12.46,30.55-27.74,0-14-11.46-25.9-26.66-27.56a1.84,1.84,0,0,1-1.47-1.08,1.75,1.75,0,0,1,.13-1.78,26.3,26.3,0,1,0-45.43-26.16,2.31,2.31,0,0,1-2.15,1.35h-.15a2.25,2.25,0,0,1-2.1-1.64,33.36,33.36,0,0,0-32-23.37Z" transform="translate(-374.96 -105.44)"/><path class="cls-3" d="M613.91,270.9c0,15.28-13.68,27.74-30.55,27.74A33.51,33.51,0,0,1,571,296.29a3.91,3.91,0,0,0-4.2.77,3.81,3.81,0,0,0-1.15,4,33,33,0,1,1-64.59,9,2.09,2.09,0,0,0-1.08-1.91,2.46,2.46,0,0,0-1.14-.32,2.06,2.06,0,0,0-1.08.32,36.51,36.51,0,0,1-17.51,4.45,35.45,35.45,0,0,1-6.17-70.44,1.92,1.92,0,0,0,1.41-1.08,2.08,2.08,0,0,0-.08-1.73,31.81,31.81,0,0,1-4.51-16.28c0-17.88,14.88-32.4,33.21-32.4a33.36,33.36,0,0,1,32,23.37,2.25,2.25,0,0,0,2.1,1.64,2.32,2.32,0,0,0,2.3-1.34,26.27,26.27,0,1,1,45.43,26.16,1.75,1.75,0,0,0-.13,1.78,1.84,1.84,0,0,0,1.47,1.08C602.45,245,613.91,256.9,613.91,270.9Z" transform="translate(-374.96 -105.44)"/><path d="M540.24,508.42c-7.06-5.39-10.7-8.41-9.92-12.8.51-2.86,4.76-5.15,10.16-8.05,13.57-7.3,35.88-19.28,33-62.95-.13-2-.3-4-.54-6.1,0-.1,0-.21,0-.32l-.65-5.79-.3-2.54-1.78,3-2.48,4.2s-.71,1.19-2,3a58.3,58.3,0,0,1-6.5,7.22c-7.34,6.95-19.43,14.88-36.33,14.88-26.92,0-42-20.2-44.75-24.34-.33-.45-.48-.73-.5-.75L473.29,410l-.65,5.63-.3,2.6c-5.64,48.93,18.16,61.72,32.39,69.37,5.39,2.9,9.65,5.19,10.15,8.05.79,4.39-2.85,7.41-9.89,12.8-7.67,5.9-18.18,14-24,28.94-6.35,16.32-5.09,34.58,3.29,47.66a41.1,41.1,0,0,0,14.5,13.69c6,3.39,13.71,5.93,23.68,6.53h.33c10-.6,17.7-3.14,23.65-6.51A41.43,41.43,0,0,0,561,585c8.38-13.08,9.63-31.34,3.28-47.66C558.42,522.39,547.91,514.32,540.24,508.42Zm20.18,64.69a40,40,0,0,1-2.11,5.17,36.4,36.4,0,0,1-2.07,3.72,35.49,35.49,0,0,1-9.81,10.1c-6.36,4.38-14.41,6.94-23.82,7.54-9.42-.6-17.47-3.16-23.84-7.54A35.65,35.65,0,0,1,489,582a38.44,38.44,0,0,1-3.66-7.38,44.31,44.31,0,0,1-1.58-5.41,51.49,51.49,0,0,1,2.46-29.83c5.25-13.5,14.64-20.72,22.18-26.51,7.2-5.53,13.42-10.29,12-18.22-.58-3.19-2.65-5.53-5.56-7.6a73,73,0,0,0-7.47-4.43c-13-7-32.35-17.38-30.11-56.5,7,8.19,22,21.65,45.51,21.65s38.25-13.35,45.16-21.56c2.22,39.05-17.08,49.41-30.11,56.41l-1.22.66c-1.94,1.06-3.77,2.09-5.39,3.17a.15.15,0,0,1-.08,0c-3.3,2.22-5.73,4.69-6.34,8.16-1.4,7.93,4.81,12.71,12,18.22,7.54,5.8,16.95,13,22.2,26.51C563.39,550.62,563.8,562.81,560.42,573.11Z" transform="translate(-374.96 -105.44)"/><path d="M559.11,427.29c-7.34,6.95-19.43,14.88-36.33,14.88-26.92,0-42-20.2-44.75-24.34a160.67,160.67,0,0,0,58.62,11A162.55,162.55,0,0,0,559.11,427.29Z" transform="translate(-374.96 -105.44)"/><path d="M560.42,573.11c-9.86-2.8-35-17.49-35-41.54h-5.6c0,1.16.06,2.28.15,3.4-.61,3.31-6.08,27.56-36.21,34.24a51.49,51.49,0,0,1,2.46-29.83c5.25-13.5,14.64-20.72,22.18-26.51,7.2-5.53,13.42-10.29,12-18.22-.58-3.19-2.65-5.53-5.56-7.6,7.54,3.49,7.6,4.27,7.6,4.29s3.86-2.41,8.69-4.85c-3.3,2.22-5.73,4.69-6.34,8.16-1.4,7.93,4.81,12.71,12,18.22,7.54,5.8,16.95,13,22.2,26.51C563.39,550.62,563.8,562.81,560.42,573.11Z" transform="translate(-374.96 -105.44)"/><path class="cls-4" d="M558.31,578.28a36.4,36.4,0,0,1-2.07,3.72,35.49,35.49,0,0,1-9.81,10.1c-6.36,4.38-14.41,6.94-23.82,7.54-9.42-.6-17.47-3.16-23.84-7.54A35.65,35.65,0,0,1,489,582a38.44,38.44,0,0,1-3.66-7.38c22.37-5.13,32.52-19.43,37-29.25C529.11,563.74,548.23,575.17,558.31,578.28Z" transform="translate(-374.96 -105.44)"/><path d="M563,723.21v162c0,12.51-4.92,23.79-23.11,29.49a57.93,57.93,0,0,1-34.53,0c-18.19-5.69-23.12-17-23.12-29.49v-162c0-27.39,29.11-30.82,29.11-46.51s-12.57-16-12.57-16V592.1c6.37,4.38,14.42,6.94,23.84,7.54,9.41-.6,17.46-3.16,23.82-7.54v68.62s-12.56.28-12.56,16S563,695.82,563,723.21Z" transform="translate(-374.96 -105.44)"/><path d="M487.07,736.34H452.26V693.25h-64.5V760.6s2.94-17.47,15.5-13.62,10.47,17.76,10.47,17.76,9.8-16.44,25.35-10.59,12,27.14-2.66,34.85c0,0,16.12-5.71,25.4,7s.71,41.81-28.4,26.11c0,0,16.13,16.18,1.71,25.31s-23.68-8-23.68-8,5.32,18.32-7.5,22.27c-11.07,3.41-16.19-16.27-16.19-16.27v67.35h63.36V864.48h45.37Z" transform="translate(-374.96 -105.44)"/><path d="M562.55,573.56l-.62,5.56a19.17,19.17,0,0,1-3.62-.84c-10.08-3.11-29.2-14.54-36-32.91A39.53,39.53,0,0,1,520,535c-.09-1.12-.15-2.24-.15-3.4h5.6c0,24,25.15,38.74,35,41.54A14.67,14.67,0,0,0,562.55,573.56Z" transform="translate(-374.96 -105.44)"/><path d="M525.56,535.48a42.5,42.5,0,0,1-3.25,9.89c-4.46,9.82-14.61,24.12-37,29.25-1,.23-2.07.45-3.15.64l-1-5.53c.87-.15,1.73-.33,2.56-.52,30.13-6.68,35.6-30.93,36.21-34.24a1.94,1.94,0,0,0,.06-.33Z" transform="translate(-374.96 -105.44)"/><path class="cls-4" d="M537.83,482.62l-1.22.66c-1.94,1.06-3.77,2.09-5.39,3.17a.15.15,0,0,1-.08,0c-4.83,2.44-8.69,4.85-8.69,4.85s-.06-.8-7.6-4.29a73,73,0,0,0-7.47-4.43c-13-7-32.35-17.38-30.11-56.5,7,8.19,22,21.65,45.51,21.65s38.25-13.35,45.16-21.56C570.16,465.26,550.86,475.62,537.83,482.62Z" transform="translate(-374.96 -105.44)"/></svg>