<?xml version="1.0" encoding="utf-8"?>
<!-- Generator: Adobe Illustrator 22.0.1, SVG Export Plug-In . SVG Version: 6.00 Build 0)  -->
<svg version="1.1" id="Layer_1" xmlns="http://www.w3.org/2000/svg" xmlns:xlink="http://www.w3.org/1999/xlink" x="0px" y="0px"
	 viewBox="0 0 1080 1080" style="enable-background:new 0 0 1080 1080;" xml:space="preserve">
<style type="text/css">
	.st0{fill:#FFFFFF;}
</style>
<g>
	<g>
		<g>
			<path d="M1025.6,565.1c-12.6,20.5-27.9,32.8-38.1,39.4v-94.3h-16.3v111.5l9.1,4.9l2.1-0.8c1.3-0.5,33.3-13.4,57.1-52.1
				L1025.6,565.1z"/>
			<path d="M927,569.8c-1.3,29.5-26.1,48.6-26.9,49.1l4.2,5.6l5.5,7.5c1.3-1,31.7-23.9,33.5-61.5c1.5-34,1.6-57,1.6-57.3h-16.3
				C928.5,513.5,928.5,536.2,927,569.8z"/>
			<path d="M830.7,581.7l9.8,13c26.4-20,40.7-42.2,47.4-55.6l-11.6-8.2l-69.2,9.4c0.3-19,0.6-35.5,0.6-35.8l-16.3-0.3
				c0,0.3-0.3,18.2-0.7,38.3l-34.9,4.7l2.2,16.2l32.4-4.4c-0.2,13-0.3,25.3-0.3,32.7c0,11.7,0.6,22,7.9,29.1
				c6.2,6.1,16.1,8.7,33.6,8.7c1.1,0,2.3,0,3.5,0c19.1-0.3,35-2,45.6-3.5v-16.5c-9.9,1.4-26.2,3.3-45.8,3.7
				c-14.1,0.3-22.4-1.1-25.4-4c-2.5-2.4-3-8.3-3-17.5c0-7.8,0.2-21.1,0.4-34.9l55.9-7.6C857.9,556.9,848.6,568.2,830.7,581.7z"/>
			<path d="M613.5,517.9v16.3h91.9c-5.2,18.6-24.8,62.2-74.3,85.2l10.8,12c37.8-17.6,57.1-43.9,67.7-64c11.5-21.8,14-39.4,14.1-40.2
				l0.3-2l-8.6-7.3H613.5z"/>
			<path d="M591.1,529.2h-48.8c0.5-9.6,0.3-18.4-0.2-25.5h-16.4c0.5,6.9,0.8,15.7,0.2,25.5h-46.9v16.3h45.2
				c-1,6.4-2.4,12.9-4.4,19.4c-9.6,31.2-39.3,48.8-45.2,52l10.6,11.5c4.3-2.1,37.9-19.2,50.2-58.7c2.5-8.1,4.2-16.3,5.3-24.2h34.2
				c-0.2,21.8-2.4,52.8-8.1,62.5c-4.5,7.7-21.2,5-30.6,2.1V627c3.3,0.8,7.4,1.6,11.7,2.1c2.1,0.2,4.1,0.3,6,0.3
				c15.8,0,23.4-6.9,27-13.1c4.8-8.3,7.9-23.8,9.4-47.4c1.1-16.7,0.9-31,0.9-31.6L591.1,529.2z"/>
			<path d="M409.7,554.8c0.1,0.1,0.1,0.2,0.2,0.2l-13.6,9.1c0.2,0.3,0.3,0.4,0.8,1c8.7,11.3,18.1,24.4,26,36.7
				c-18.5,4.2-46.7,6.2-68.6,7.1l37.4-100.4l-15.3-5.7l-39.7,106.7c-9,0.2-14.9,0.2-15.1,0.2V626c3.3,0,75.1-0.1,110.1-9.6
				c3.4,6.3,6,11.9,7.4,16.5l15.6-4.7c-6.6-22.1-33.5-58.5-44.8-73.1C409.9,555,409.8,554.9,409.7,554.8z"/>
			<path d="M214.1,558.4c-19.2,10.9-34,16-34.1,16l8.8,13.5c1.4-0.5,21.7-7,50.4-25.6v67.4h16.3v-78.7c13.3-9.8,27.9-22,42.7-37
				l-12.7-10.4C257.7,531.7,231.8,548.4,214.1,558.4z"/>
			<path d="M145.8,519.4c-0.3,0-22.2,1.3-49.1,0.5c1.8-4.1,3.5-8.4,4.9-12.9l-15.5-5c-12.8,39.7-44.8,62.3-45.6,62.9l4.6,6.7
				l4.6,6.7c1.2-0.8,22.2-15.4,38.7-42.5c19.4,0.8,37,0.5,47.7,0.2c-1.9,6.8-5.3,16.7-11.1,27.2c-1.5,2.8-3.2,5.5-5,8.1l-33-19.7
				l-10.4,11.8l33.3,20.6C95.7,599.5,77.3,611,57,617.8l9.4,13.1c18.1-6.1,32.8-13.7,46.2-25.8c10.7-9.7,19.8-21.3,27-34.4
				c12.2-22.3,14.7-41.3,14.9-42.1l0.5-3.6L145.8,519.4L145.8,519.4z"/>
		</g>
	</g>
	<path d="M775.7,486.2c-0.2-6.2-6.1-7.9-6.1-7.9l11.5-20.6c-7.5-7.2-17.9-11.4-29-10.6c-21.1,1.4-37.1,19.6-35.8,40.7
		c1.4,21.1,19.6,37.1,40.7,35.8c9.5-0.6,18-4.6,24.3-10.8l-10.6-18.1C770.7,494.7,776,492.4,775.7,486.2z M761.6,491.6
		c0,0,1.3,7.4-2.2,10c-3.5,2.6-7.2,2.2-9.7-0.1c-2.5-2.4-2.6-4.7-2.5-7.3c0,0-4.6,3.8-9.9,0.8c-5.3-3-4.1-10.1-1.5-12.4
		c2.6-2.3,5.8-2.6,5.8-2.6s-2.3-2.9-1.5-6.8c0.8-3.9,5.2-6.1,9-5.2c3.8,0.9,5.1,4.7,5.9,7.7c0,0,1.1-2.2,2.9-4.3
		c1.8-2,6.1-2.3,8.4,1c2.3,3.2,0.7,5.7-0.7,8c0,0,4.8-0.2,6.6,3.2c1.8,3.4,0.2,7.6-3.4,8.7C765.3,493.5,761.6,491.6,761.6,491.6z"/>
</g>
</svg>
